<svg width="64" height="64" viewBox="0 0 64 64" fill="none" xmlns="http://www.w3.org/2000/svg">
<path d="M24.9581 58.625H9.92236C7.7561 58.625 6 56.8689 6 54.7026V9.92237C6 7.75611 7.7561 6.00001 9.92236 6.00001H24.9581C27.1243 6.00001 28.8804 7.75611 28.8804 9.92237V54.7026C28.8804 56.8689 27.1243 58.625 24.9581 58.625Z" fill="#3E64FF"/>
<path d="M31.8222 24.9581V9.92239C31.8222 7.75613 33.5783 6.00003 35.7446 6.00003H53.3952C55.5615 6.00003 57.3176 7.75613 57.3176 9.92239V24.9581C57.3176 27.1244 55.5615 28.8805 53.3952 28.8805H35.7446C33.5783 28.8805 31.8222 27.1244 31.8222 24.9581Z" fill="#F5CCCC"/>
<path d="M31.8222 54.7027V35.7447C31.8222 33.5784 33.5783 31.8223 35.7446 31.8223H53.3952C55.5615 31.8223 57.3176 33.5784 57.3176 35.7447V54.7027C57.3176 56.869 55.5615 58.6251 53.3952 58.6251H35.7446C33.5783 58.6251 31.8222 56.869 31.8222 54.7027Z" fill="#5EDFFF"/>
</svg>
