<svg width="106" height="24" viewBox="0 0 106 24" fill="none" xmlns="http://www.w3.org/2000/svg">
<g clip-path="url(#clip0_449_97)">
<path d="M7.64062 22.6584H1.58081C0.707743 22.6584 -1.52588e-05 21.9507 -1.52588e-05 21.0776V3.02991C-1.52588e-05 2.15685 0.707743 1.44909 1.58081 1.44909H7.64062C8.51369 1.44909 9.22144 2.15685 9.22144 3.02991V21.0776C9.22144 21.9507 8.51369 22.6584 7.64062 22.6584Z" fill="#3E64FF"/>
<path d="M10.4071 9.08973V3.02992C10.4071 2.15685 11.1148 1.4491 11.9879 1.4491H19.1016C19.9747 1.4491 20.6824 2.15685 20.6824 3.02992V9.08973C20.6824 9.9628 19.9747 10.6706 19.1016 10.6706H11.9879C11.1148 10.6706 10.4071 9.9628 10.4071 9.08973Z" fill="#F5CCCC"/>
<path d="M10.4071 21.0777V13.437C10.4071 12.564 11.1148 11.8562 11.9879 11.8562H19.1016C19.9747 11.8562 20.6824 12.564 20.6824 13.437V21.0777C20.6824 21.9507 19.9747 22.6585 19.1016 22.6585H11.9879C11.1148 22.6585 10.4071 21.9507 10.4071 21.0777Z" fill="#5EDFFF"/>
<path d="M27.7597 4.25284H30.6562V19.2333H27.7597V4.25284ZM41.9333 15.9811C41.8587 16.6383 41.5166 17.3058 40.9068 17.9833C39.9581 19.0605 38.6303 19.5992 36.9228 19.5992C35.5135 19.5992 34.2702 19.1452 33.1929 18.2373C32.1156 17.3295 31.577 15.8524 31.577 13.8062C31.577 11.8888 32.0614 10.4185 33.0303 9.3954C34.006 8.3723 35.2696 7.86076 36.8211 7.86076C37.7426 7.86076 38.5726 8.03353 39.3112 8.37909C40.0497 8.72463 40.6595 9.27005 41.1405 10.0154C41.5741 10.6726 41.8553 11.4348 41.9841 12.3021C42.0585 12.8102 42.0891 13.542 42.0755 14.4973H34.4938C34.5345 15.6085 34.8834 16.3876 35.5405 16.8348C35.9404 17.1127 36.4215 17.2515 36.9838 17.2515C37.5801 17.2515 38.0645 17.0821 38.4371 16.7434C38.6404 16.5604 38.82 16.3063 38.9758 15.9811H41.9333ZM39.0672 12.5866C39.0198 11.821 38.7861 11.2417 38.366 10.8487C37.9526 10.449 37.4378 10.2491 36.8211 10.2491C36.1503 10.2491 35.6287 10.4591 35.256 10.8792C34.8902 11.2993 34.6598 11.8684 34.5649 12.5866H39.0672ZM43.413 9.35474C44.1787 8.37909 45.493 7.89125 47.3563 7.89125C48.5691 7.89125 49.6463 8.13178 50.5881 8.61284C51.53 9.0939 52.0008 10.0018 52.0008 11.3366V16.4182C52.0008 16.7704 52.0077 17.1974 52.0211 17.6988C52.0415 18.0782 52.0991 18.3356 52.194 18.4711C52.2888 18.6067 52.4311 18.7184 52.6208 18.8065V19.2333H49.4702C49.3822 19.0098 49.3212 18.7997 49.2872 18.6032C49.2534 18.4067 49.2264 18.1831 49.206 17.9325C48.8063 18.3661 48.3455 18.7354 47.8238 19.0402C47.2004 19.3993 46.4958 19.5789 45.7098 19.5789C44.7071 19.5789 43.8771 19.2943 43.2199 18.7252C42.5694 18.1493 42.2443 17.3362 42.2443 16.286C42.2443 14.9241 42.7694 13.9384 43.8196 13.3286C44.3954 12.9965 45.2423 12.7594 46.3603 12.6171L47.3461 12.4952C47.8814 12.4274 48.2642 12.3427 48.4946 12.2411C48.9078 12.0649 49.1145 11.7905 49.1145 11.4179C49.1145 10.9639 48.9553 10.6522 48.6369 10.4829C48.3252 10.3067 47.8645 10.2186 47.2547 10.2186C46.5703 10.2186 46.0859 10.388 45.8014 10.7268C45.5981 10.9775 45.4626 11.3162 45.3949 11.7431H42.6C42.661 10.7742 42.9319 9.97809 43.413 9.35474ZM45.5676 17.1397C45.8385 17.3634 46.1706 17.4751 46.5636 17.4751C47.1868 17.4751 47.7594 17.2922 48.2812 16.9263C48.8096 16.5604 49.084 15.8931 49.1044 14.9241V13.8468C48.9214 13.9621 48.7351 14.0569 48.5454 14.1314C48.3625 14.1992 48.1083 14.2635 47.7831 14.3245L47.1327 14.4465C46.5229 14.5549 46.0859 14.687 45.8217 14.8429C45.3744 15.1071 45.1509 15.517 45.1509 16.0726C45.1509 16.5672 45.2897 16.923 45.5676 17.1397ZM59.111 10.8284C57.9457 10.8284 57.163 11.2078 56.7633 11.9667C56.5398 12.3935 56.4279 13.0507 56.4279 13.9384V19.2333H53.5111V8.15549H56.2755V10.0865C56.7226 9.34797 57.1123 8.8432 57.4443 8.57218C57.9862 8.11823 58.6909 7.89125 59.5582 7.89125C59.6124 7.89125 59.6564 7.89464 59.6904 7.90142C59.7309 7.90142 59.8156 7.9048 59.9443 7.91157V10.8792C59.7615 10.8589 59.5988 10.8453 59.4565 10.8386C59.3143 10.8318 59.1991 10.8284 59.111 10.8284ZM65.8247 10.2999C64.8424 10.2999 64.1682 10.7166 63.8023 11.55C63.6126 11.9904 63.5178 12.5528 63.5178 13.237V19.2333H60.6315V8.17582H63.4262V9.79176C63.7989 9.22263 64.1513 8.81271 64.4833 8.56202C65.0795 8.11484 65.835 7.89125 66.7496 7.89125C67.8947 7.89125 68.8297 8.19276 69.5547 8.79578C70.2865 9.39201 70.6523 10.3846 70.6523 11.7736V19.2333H67.6847V12.4952C67.6847 11.9125 67.6067 11.4653 67.4509 11.1536C67.1663 10.5845 66.6242 10.2999 65.8247 10.2999ZM75.2725 8.15549V19.2333H72.3353V8.15549H75.2725ZM75.2725 4.16138V6.83428H72.3353V4.16138H75.2725ZM84.1509 17.6682C84.1239 17.702 84.0561 17.8037 83.9477 17.9732C83.8394 18.1424 83.7105 18.2916 83.5616 18.4203C83.1076 18.8268 82.6672 19.1046 82.2404 19.2536C81.8203 19.4027 81.3256 19.4773 80.7565 19.4773C79.1168 19.4773 78.0125 18.8878 77.4432 17.7089C77.1248 17.0584 76.9657 16.0998 76.9657 14.8327V8.15549H79.9333V14.8327C79.9333 15.4628 80.0079 15.9371 80.1569 16.2556C80.4211 16.8178 80.9395 17.0991 81.7119 17.0991C82.7011 17.0991 83.3786 16.6993 83.7445 15.8998C83.9342 15.4662 84.0291 14.8937 84.0291 14.1822V8.15549H86.9662V19.2333H84.1509V17.6682ZM94.9503 11.2044C94.7065 10.6692 94.2288 10.4016 93.5173 10.4016C92.6908 10.4016 92.1351 10.6692 91.8506 11.2044C91.6947 11.5093 91.6169 11.9633 91.6169 12.5663V19.2333H88.6797V8.17582H91.4949V9.79176C91.854 9.21586 92.1927 8.80594 92.5112 8.56202C93.0736 8.1284 93.802 7.91157 94.6963 7.91157C95.5433 7.91157 96.2275 8.0979 96.7493 8.47055C97.1693 8.81611 97.4878 9.25989 97.7046 9.80192C98.084 9.15149 98.5549 8.67382 99.1172 8.36892C99.7135 8.06403 100.378 7.91157 101.109 7.91157C101.597 7.91157 102.078 8.00644 102.552 8.19615C103.027 8.38586 103.457 8.71786 103.843 9.19213C104.155 9.57834 104.365 10.0526 104.473 10.615C104.541 10.9876 104.575 11.5331 104.575 12.2512L104.555 19.2333H101.587V12.1801C101.587 11.76 101.519 11.4145 101.384 11.1435C101.126 10.6285 100.652 10.3711 99.9609 10.3711C99.1614 10.3711 98.6091 10.7031 98.3042 11.3671C98.1483 11.7194 98.0705 12.1428 98.0705 12.6375V19.2333H95.1536V12.6375C95.1536 11.9802 95.0859 11.5026 94.9503 11.2044Z" fill="white"/>
</g>
<defs>
<clipPath id="clip0_449_97">
<rect width="105.915" height="23.9758" fill="white"/>
</clipPath>
</defs>
</svg>
